<?xml version="1.0" encoding="utf-8"?>
<!-- Generator: Adobe Illustrator 27.2.0, SVG Export Plug-In . SVG Version: 6.00 Build 0)  -->
<svg version="1.1" id="Layer_2_00000156558679045883463590000010024967993482112909_"
	 xmlns="http://www.w3.org/2000/svg" xmlns:xlink="http://www.w3.org/1999/xlink" x="0px" y="0px" viewBox="0 0 1110.8 766"
	 style="enable-background:new 0 0 1110.8 766;" xml:space="preserve">
<style type="text/css">
	.st0{fill:#FAFFFE;}
	.st1{fill:#F7F7F7;}
	.st2{fill:#F8EEEA;}
	.st3{fill:#DDDBDB;}
	.st4{fill:#4D4D4D;}
	.st5{fill:#666666;}
	.st6{fill:#808080;}
</style>
<rect x="-34.3" y="-8" class="st0" width="1165.1" height="776.7"/>
<path class="st1" d="M286.4,768.7H-33.7v-470c124.3,1.4,246.6,44.6,306.1,128.8C328.6,507,335.4,632.5,286.4,768.7z"/>
<path class="st2" d="M863-8.9c-40.3,72.9-124.1,146.4-205.5,187c-157.6,78.5-386,72.8-489.2-39.6c-33.9-36.9-56.4-87.6-66-147.4H863
	z"/>
<path class="st3" d="M1131.3,172.6v596.1H627.1C637.3,573.7,809.7,324.4,1131.3,172.6z"/>
<g>
	<g>
		<path class="st4" d="M778.7,740.7c-11.5-20.6-17-41.4-16.3-61.9c0.7-18.6,6.2-31.3,12.1-44.8c3.2-7.4,6.5-15,9.3-24
			c9.1-29.7,8.1-63.5-2.7-100.4l1.5-0.4c11,37.2,11.9,71.3,2.7,101.3c-2.8,9.1-6.1,16.8-9.4,24.2c-5.8,13.4-11.3,26-12,44.3
			c-0.7,20.2,4.7,40.8,16.1,61.1L778.7,740.7z"/>
	</g>
	<g>
		<path class="st4" d="M835.2,768.7h-2c-2.8-3.9-6.1-7.5-10-11c-15.8-14-30.4-15.3-54.6-17.5c-1.8-0.2-3.6-0.3-5.4-0.5
			c-0.2,0-0.4,0-0.7-0.1c-0.9-0.1-1.8-0.2-2.8-0.3c-0.7-0.1-1.5-0.1-2.2-0.2c-10.8-1.1-23.4-2.6-38.1-5.5c-25.9-5.1-51.6-13-77-23.7
			c-0.1,0-0.2-0.1-0.3-0.1c-0.9-0.4-1.8-0.8-2.7-1.2c-0.6-0.3-1.3-0.6-1.9-0.8c-26.5-11.6-52.6-26.2-78.2-43.8c0,0-0.1,0-0.1-0.1
			c0,0,0,0,0,0c-0.2-0.2-0.5-0.3-0.7-0.5l0.8-1.2l0.1-0.1c0.2,0.1,0.4,0.3,0.6,0.4c0,0,0,0,0,0c0,0,0,0,0,0
			c12.1,8.3,24.3,16,36.6,23c1.2,0.7,2.5,1.4,3.7,2.1c1.4,0.8,2.7,1.5,4.1,2.3c0.2,0.1,0.4,0.2,0.6,0.3c12.3,6.7,24.8,12.7,37.3,18
			c0.5,0.2,1,0.4,1.5,0.6c10.7,4.5,21.6,8.5,32.4,12c0,0,0.1,0,0.1,0c0,0,0,0,0,0c0.4,0.1,0.8,0.3,1.2,0.4c0.4,0.1,0.8,0.2,1.1,0.4
			c13.6,4.3,27.2,7.7,40.9,10.4c16.6,3.2,30.5,4.8,42.1,5.9c0.2,0,0.3,0,0.5,0c0.2,0,0.4,0,0.7,0.1c0.4,0,0.9,0.1,1.3,0.1
			c1.6,0.1,3.1,0.3,4.6,0.4c3.2,0.3,6.3,0.6,9.2,0.9c0.6,0.1,1.3,0.1,1.9,0.2c17.7,1.9,30.9,4.8,44.4,16.8
			C828.6,760.3,832.2,764.4,835.2,768.7z"/>
	</g>
	<g>
		<path class="st4" d="M873.5,561.4l-0.1-4.3l-1.5,4c0,0-0.2,0.6-0.6,1.5c-0.1,0.2-0.2,0.5-0.3,0.7c0,0,0,0,0,0
			c-3.8,9.2-19.3,43.1-42.9,45.7c-26.2,2.8-58.5,60.9-64.1,71.3v0c-0.4,0.8-0.7,1.3-0.8,1.5l-0.8,1.6l-0.1,0.2l0.1,0l1.6-0.5
			l0.2-0.1c0.2-0.1,14.2-4.9,33.9-15.3c11.4-6,24.7-13.8,38.4-23.6C874.1,617.2,873.5,562,873.5,561.4z M871.4,570.5
			c-1.5,16.7-8,52.5-36,72.4c-27.9,19.9-54,31.6-65.6,36.3c-1.8,0.7-3.3,1.3-4.3,1.7c0.2-0.3,0.4-0.6,0.6-1
			c7.2-13,38.1-66.5,62.1-69.1c4-0.4,7.7-1.7,11.2-3.5c14.9-7.8,25.3-26.3,30.4-37.1c0,0,0,0,0,0c0.7-1.6,1.4-3,1.9-4.2
			C871.7,567.2,871.6,568.7,871.4,570.5C871.4,570.5,871.4,570.5,871.4,570.5z"/>
	</g>
	<g>
		<path class="st4" d="M764.3,683l-0.9-1.3c1-0.7,104.1-69.3,107.7-118.9l1.6,0.1c-1.5,21.2-20.2,47.9-55.6,79.3
			C790.7,665.5,764.6,682.8,764.3,683z"/>
	</g>
	<g>
		<path class="st4" d="M700.3,764.3c24.7-13,46.2-20.2,56.5-23.3h0c1.9-0.6,3.4-1,4.4-1.3c-0.2,0.3-0.4,0.6-0.7,1
			c-3.4,5-11.3,16.3-21.2,28h2.2c11-13.2,19.3-25.6,21.6-29c0.3-0.4,0.5-0.7,0.5-0.8l0.4-0.7l0.6-1l-1.9,0.5c0,0-0.4,0.1-1.1,0.3
			c-0.9,0.2-2.3,0.6-4.2,1.2c-11.2,3.3-38.5,12.3-68.5,29.5h3.2C694.9,767.1,697.6,765.7,700.3,764.3z"/>
	</g>
	<g>
		<path class="st4" d="M763.4,739.1c-0.1,0-0.4,0.2-0.9,0.5h0c-0.5,0.3-1.1,0.6-1.9,1.1c-6.8,3.8-24.8,14.1-44.6,28h-2.9
			c18.1-12.8,35.1-22.8,43.7-27.7h0c1.1-0.6,2.1-1.2,2.9-1.6c1.1-0.6,2-1.1,2.5-1.4c0.3-0.2,0.5-0.2,0.5-0.3l0.2,0.3L763.4,739.1z"
			/>
	</g>
	<g>
		<path class="st4" d="M642.4,708.2C642.4,708.2,642.4,708.2,642.4,708.2c-0.4,0-2.1-0.2-4.9-0.4c-11.4-0.7-41.4-1.5-77,5.2
			c-38.2,7.2-60.3,43.7-66.6,55.6h1.8c0.6-1,1.2-2.2,2-3.5c0,0,0,0,0,0c8.4-14.5,29.4-44.2,63.1-50.5c33.7-6.3,62.3-5.9,74.8-5.2
			c1.9,0.1,3.5,0.2,4.6,0.3c-0.3,0.2-0.6,0.4-0.9,0.7l0,0c-12,8.8-62.5,44.2-85.4,36.5c-11.4-3.8-23.9-0.1-34.6,5.5
			c-8.2,4.3-15.3,9.7-20.2,13.8c0,0,0,0,0,0c-1.1,0.9-2.1,1.8-2.9,2.5h2.5c10.5-9,35-27.1,54.8-20.4c11.9,4,30.5-2.8,47.6-11.8
			c20.1-10.6,38.3-24.1,41.5-26.5c0.2-0.1,0.3-0.3,0.4-0.3l1-0.8l0.5-0.4L642.4,708.2z"/>
	</g>
	<g>
		<path class="st4" d="M496,768.7h1c0.6-0.9,1.2-1.7,1.9-2.5c0,0,0,0,0,0c28.5-35.4,121.8-52.7,140.3-55.8l0,0
			c1.4-0.2,2.4-0.4,2.9-0.5c0.2,0,0.3,0,0.3-0.1l-0.2-1.6c-0.1,0-1,0.2-2.8,0.5c-1,0.2-2.3,0.4-3.8,0.7c-10.9,1.9-34,6.4-58.4,13.7
			c-40,12-66.7,26.1-79.5,42.1c0,0,0,0,0,0c-0.9,1.2-1.8,2.3-2.6,3.5h0.6H496z"/>
	</g>
	<g>
		<path class="st4" d="M560,662.7C560,662.7,560,662.7,560,662.7C560,662.7,560,662.7,560,662.7C560,662.6,560,662.6,560,662.7
			c-1.7-1.3-24.3-18.6-56.5-34.1c-33.5-16.2-66-2-66.3-1.8l-3.7,1.7l4.1-0.2c0,0,0.5,0,1.3,0h0.5c7.3,0,34.5,1,46.9,14.7
			c14.6,15.9,68.6,20.8,73,21.2c0.1,0,0.2,0,0.2,0l2.6,0.2L560,662.7z M487.5,641.8c-10-10.9-28.4-14-39.9-14.9c0,0,0,0,0,0
			c-2.1-0.2-4-0.2-5.6-0.3c1.2-0.4,2.6-0.8,4.2-1.2c11.6-3.1,33.9-6.4,56.6,4.6c21.8,10.5,39.1,21.8,48.5,28.3c0,0,0,0,0,0
			c2.3,1.6,4.2,3,5.5,3.9c-0.4,0-0.9-0.1-1.5-0.2C541.8,660.6,499.6,655.1,487.5,641.8z"/>
	</g>
	<g>
		<path class="st4" d="M559.2,664c-0.9-0.5-89.3-45.8-120.3-35.6l-0.5-1.5c31.6-10.4,117.8,33.8,121.5,35.7L559.2,664z"/>
	</g>
	<g>
		<path class="st4" d="M869.9,637.4l-2.5-3.5l1.1,4.1c0,0.1,0.2,0.6,0.4,1.6c0.1,0.2,0.1,0.5,0.2,0.8c2.1,9.8,8.3,46.5-9.7,61.9
			c-12.8,11-15,42.2-14.5,66.3h1.7c-0.4-23.8,1.6-54.6,13.9-65.1c16-13.7,13.8-42.4,11.5-57c-0.3-1.7-0.6-3.3-0.8-4.6
			c0.7,1.1,1.5,2.5,2.3,4c8.2,14.6,22.9,47.9,11.1,80.1c-6.1,16.5-13,31-19.2,42.6h1.8c6.2-11.5,12.9-25.8,18.9-42
			C901.9,683.1,870.2,637.8,869.9,637.4z"/>
	</g>
	<g>
		<path class="st4" d="M868.8,735.9c-3,11.9-6.4,23.2-9.5,32.8h-1.7c11.3-34.7,25.8-90.8,14.2-122.1c-0.8-2.2-1.7-4.2-2.8-6.1
			c-0.1-0.2-0.3-0.5-0.4-0.7l0.2-0.1l1.2-0.7c1.3,2.2,2.4,4.5,3.3,7C880.5,665.2,879,695.3,868.8,735.9z"/>
	</g>
	<g>
		<path class="st4" d="M895.5,744.1c0.1,0.2,0.1,0.5,0.2,0.8c0.9,4.2,2.6,13.4,2.7,23.7h1.7c-0.1-6.7-0.9-12.9-1.6-17.6
			c-0.3-1.7-0.6-3.3-0.8-4.5c0.7,1.1,1.5,2.5,2.3,4c2.5,4.5,5.6,10.7,8.4,18.2h1.7c-5.9-15.9-13.4-26.6-13.5-26.8l-2.5-3.5l1.1,4.1
			C895.1,742.6,895.2,743.1,895.5,744.1z"/>
	</g>
	<g>
		<path class="st4" d="M903.8,768.7h-1.7c-0.6-6.4-1.8-12.4-3.8-17.6c-0.8-2.2-1.7-4.2-2.8-6.1c-0.1-0.2-0.3-0.5-0.4-0.7l0.2-0.1
			l1.2-0.7c1.3,2.2,2.4,4.5,3.3,7C901.9,755.7,903.2,761.8,903.8,768.7z"/>
	</g>
	<g>
		<path class="st4" d="M765.8,663.7l-0.3-0.7c-0.1-0.2-0.3-0.9-0.8-2v0c-3.4-8.6-17.7-42.2-32.3-45.6c-13.4-3.2-20.1-23.9-21.6-29.6
			c0-0.1-0.1-0.3-0.1-0.4c-0.2-0.6-0.3-1-0.3-1l-1-4.2l-0.6,4.2c0,0.3-4.5,32.8,15.9,51.5c18.8,17.3,36.9,26.7,39.4,27.9
			c0.2,0.1,0.3,0.1,0.3,0.1l1.2,0.6l0.6,0.3L765.8,663.7z M759,659.2c-7.3-4.2-20.1-12.4-33.2-24.5c-13.2-12.2-15.6-30.5-15.8-41.3
			c0,0,0,0,0,0c0-1.7,0-3.2,0.1-4.4c0.4,1.4,1,3,1.6,4.7c3.3,8.7,9.8,20.7,20.3,23.2c13.1,3.1,26.6,33.6,30.7,43.5
			c0.2,0.4,0.3,0.8,0.5,1.1C762.2,661,760.8,660.2,759,659.2C759,659.2,759,659.2,759,659.2z"/>
	</g>
	<g>
		<path class="st4" d="M764.2,663.9c-2.3-2-56.5-48.6-55-78.6l1.6,0.1c-1.5,29.2,53.9,76.8,54.4,77.3L764.2,663.9z"/>
	</g>
	<g>
		<path class="st4" d="M851.6,496.4c0,0-0.2,0.3-0.4,0.9c0,0.1-0.1,0.2-0.1,0.3c0,0,0,0,0,0c-2.4,4.5-11.6,20.5-23.7,22.5
			c-13.7,2.4-32.9,30.6-36.1,35.6v0c-0.2,0.4-0.4,0.6-0.5,0.7l-1,1.6l-0.3,0.4l0.3-0.1l1.6-0.6l0.4-0.1c0.1,0,7.5-2.8,18.1-8.4
			c6.1-3.2,13.3-7.3,20.8-12.4c20.7-14,22.5-39.7,22.5-39.9l0.3-4.1L851.6,496.4z M829.7,535.4c-12.1,8.2-23.4,13.9-30.6,17.2
			c-2.3,1.1-4.2,1.9-5.6,2.5c0.2-0.3,0.5-0.7,0.8-1.1c0,0,0,0,0,0c5.8-8.4,21.9-30.3,33.3-32.3c8.2-1.4,15-8.5,19.5-14.8
			c0,0,0,0,0,0c1.6-2.1,2.8-4.2,3.8-5.8c-0.2,1.1-0.5,2.5-0.9,3.9C847.8,513.5,842.4,526.7,829.7,535.4z"/>
	</g>
	<g>
		<path class="st4" d="M791.8,557.5l-0.9-1.3c0.6-0.4,56.3-36,60.1-58.9l1.6,0.3C848.7,521.1,794.1,556,791.8,557.5z"/>
	</g>
	<g>
		<path class="st4" d="M790.5,585.2L790.5,585.2l-0.2-0.6c-0.3-1.1-0.7-2.1-1-3.1v0c-19.7-58.6-53.1-86.6-53.4-86.9L734,493
			l5.6,21.4c10.5,43.2,44.2,67.5,49,70.8c0,0,0,0,0.1,0.1c0.1,0.1,0.2,0.1,0.2,0.2c0.2,0.1,0.2,0.2,0.3,0.2l0.2,0.1c0,0,0,0,0,0
			l1,0.6l0.6,0.4L790.5,585.2z M741.1,514l-3.2-12.2v0l-1.1-4.3c0.4,0.4,0.8,0.8,1.4,1.3c0,0,0,0,0,0c8.9,8.7,33.9,36,49.8,83.6
			c0,0,0,0,0,0c0,0.1,0.1,0.3,0.1,0.4c-1.2-0.9-2.9-2.2-5-3.9C771.7,569.6,749.3,547.6,741.1,514z"/>
	</g>
	<g>
		<path class="st4" d="M789.4,585.7c-0.4-0.1-10.3-4.5-54.7-90.1l1.4-0.7c44.1,85,53.8,89.3,53.9,89.3L789.4,585.7z"/>
	</g>
	<g>
		<path class="st4" d="M768.4,435.6l-1.3-2.1l-1.5,16.8c-3.6,32.1,13.2,57.2,16,61.1c0,0,0,0,0,0c0,0,0,0,0,0
			c0.2,0.3,0.4,0.5,0.4,0.5l0.1,0.1c0,0,0,0,0,0l1.2,1.6l0.1-1.8l0-0.4C785.2,464.7,768.6,435.9,768.4,435.6z M778.8,504
			c-5.6-10-14.3-29.8-11.6-53.5l0.7-7.3l0.4-4.4c0.3,0.5,0.5,1.1,0.9,1.8c4.3,9.2,13.5,33.2,12.8,67.8c0,0.2,0,0.5,0,0.7
			C781.1,507.9,780.1,506.2,778.8,504C778.8,504,778.8,504,778.8,504z"/>
	</g>
	<g>
		<path class="st4" d="M782.2,512.2c-0.6-0.5-6.2-6.9-15.2-76.1l1.6-0.2c8.9,68.2,14.5,74.8,14.7,75.1L782.2,512.2z"/>
	</g>
	<g>
		<path class="st4" d="M920,520.6l-0.9-2.3l-5.9,21.3c-12.7,42.6,4.4,80.7,6.8,85.8c0,0,0,0.1,0.1,0.1c0.1,0.3,0.2,0.5,0.2,0.5
			l0.1,0.2l0.9,1.8l0.5-2.2C935.5,563.4,920.2,521,920,520.6z M921,622.7C921,622.7,921,622.7,921,622.7c0,0.1-0.1,0.3-0.1,0.4
			c-0.6-1.4-1.4-3.3-2.4-5.9c0,0,0,0,0,0c-5.2-13.9-13.5-44.2-3.6-77.3l3.3-12.1c0,0,0,0,0,0c0,0,0,0,0,0l1.2-4.3
			c0.2,0.5,0.3,1.1,0.5,1.8v0C923.2,537.4,931.1,573.6,921,622.7z"/>
	</g>
	<g>
		<path class="st4" d="M920.6,626.2c-0.3-0.3-6.6-9.1-2.1-105.4l1.6,0.1c-4.5,95.7,1.6,104.2,1.7,104.3L920.6,626.2z"/>
	</g>
	<g>
		<path class="st4" d="M678.7,721.6l-0.3-1c-19.5-60.7-54.1-89.7-54.5-90L622,629l5.6,21.4c10.2,42.1,42.6,66.3,48.6,70.5
			c0.2,0.1,0.3,0.2,0.5,0.3c0,0,0,0,0,0c0.3,0.2,0.5,0.3,0.5,0.3l0.2,0.1c0,0,0,0,0,0l1.6,1L678.7,721.6z M671.2,715
			c-11.4-9.4-33.8-31.4-42-65l-3.2-12.1v0l-1.1-4.3c0.4,0.4,0.9,0.8,1.4,1.3l0,0c8.9,8.7,33.9,36,49.8,83.5c0.1,0.2,0.1,0.3,0.2,0.5
			C675,718,673.2,716.7,671.2,715C671.2,715,671.2,715,671.2,715z"/>
	</g>
	<g>
		<path class="st4" d="M677.5,721.6c-0.4-0.1-10.3-4.5-54.7-90.1l1.4-0.7c43.4,83.6,53.5,89.2,53.9,89.4L677.5,721.6z"/>
	</g>
	<g>
		<path class="st4" d="M605,690.3l-0.1-0.2c-19.5-60.7-54.1-89.7-54.5-90l-1.9-1.6l5.6,21.4c8.2,33.9,30.8,56.2,42.5,65.8
			c3.2,2.7,5.6,4.3,6.6,5c0,0,0,0,0,0c0.3,0.2,0.5,0.3,0.5,0.3l0.2,0.1l1.7,1.1L605,690.3z M555.7,619.5l-3.2-12.2v0l-1.1-4.3
			c0.4,0.4,0.9,0.8,1.4,1.3l0,0c8.9,8.7,33.9,36,49.8,83.5c0.1,0.2,0.1,0.3,0.2,0.5c-1.2-0.9-2.9-2.2-5-3.9
			C586.3,675.1,563.9,653,555.7,619.5z"/>
	</g>
	<g>
		<path class="st4" d="M604,691.1c-0.4-0.1-10.3-4.5-54.7-90.1l1.4-0.7c43.4,83.6,53.5,89.2,53.9,89.4L604,691.1z"/>
	</g>
	<g>
		<path class="st4" d="M602.1,547.4c-42.5-22.3-77.2-29.4-98.8-31.4c-23.5-2.2-37.1,0.9-37.3,0.9l-0.3,0.1l-0.4,0.5l0.1,0.4
			c0.3,1.3,10.8,8.1,31.2,20.1c31.5,18.5,104.4,10.9,105.2,10.9l2.6-0.3L602.1,547.4z M590.6,548.2c-21.6,1.3-69.5,2.4-93.2-11.5
			c-13.9-8.2-21.4-12.9-25.6-15.6c0,0,0,0,0,0c-2.1-1.4-3.3-2.3-4-2.8c0.3-0.1,0.7-0.1,1.1-0.2c11.5-1.8,60.1-6.2,129.1,29.1l0,0
			c0,0,0,0,0,0c0.3,0.1,0.6,0.3,0.9,0.4C597,547.8,594.2,548,590.6,548.2L590.6,548.2z"/>
	</g>
	<g>
		<path class="st4" d="M601.7,548.9c-0.8,0-75.9-2.9-135.5-30.4l0.7-1.4c59.3,27.4,134.1,30.2,134.9,30.3L601.7,548.9z"/>
	</g>
</g>
<g>
	<g>
		<path class="st4" d="M915.7-8c-0.1,3.5-0.5,6.9-1.1,10.2c0,0,0,0.1,0,0.1c-0.2,1.2-0.4,2.4-0.7,3.6c-0.9,4-2,7.6-3.3,11
			c0,0,0,0,0,0c-0.2,0.4-0.3,0.9-0.5,1.3c-0.1,0.2-0.2,0.5-0.3,0.7v0c-3.1,7.1-7,13-11,19c-3.4,5.1-7,10.4-10.2,16.8
			c-2.9,5.6-5.3,11.5-7.2,17.7c0,0,0,0,0,0c-0.1,0.4-0.3,0.9-0.4,1.3v0c-0.2,0.5-0.3,1-0.4,1.5v0c-1.5,5.6-2.7,11.4-3.5,17.4
			c0,0.1,0,0.2,0,0.2c-1.4,11.2-1.5,23.2-0.3,36c0,0,0,0,0,0c0.1,0.5,0.1,1.1,0.2,1.6l-0.9,0.1l-0.3,0c-0.1-0.5-0.1-1-0.1-1.4
			c0-0.1,0-0.1,0-0.2c0-0.2,0-0.5-0.1-0.7v0c-1.1-11.9-1.1-23.2,0.1-33.9c0-0.1,0-0.2,0-0.2c0-0.1,0-0.3,0.1-0.4
			c0-0.3,0.1-0.6,0.1-0.9c0.9-7.2,2.3-14,4.3-20.5v0c0.1-0.3,0.2-0.5,0.3-0.8c1.9-6.1,4.2-11.9,7.1-17.3c3.3-6.5,6.9-11.8,10.3-16.9
			c4.3-6.5,8.5-12.7,11.6-20.5c0.1-0.2,0.2-0.4,0.2-0.6c1.2-3.2,2.3-6.6,3.1-10.5c0.1-0.4,0.2-0.8,0.3-1.2l0,0
			c0-0.2,0.1-0.4,0.1-0.6c0.1-0.3,0.1-0.6,0.2-0.8c0-0.2,0.1-0.4,0.1-0.5c0.6-3.4,1-6.9,1.1-10.4H915.7z"/>
	</g>
	<g>
		<path class="st4" d="M1064.9,45.1l-0.9,0.9l-0.4-0.4c0,0,0,0,0,0l0,0c-7.9-7.9-16.1-15.3-24.4-22.3c-0.8-0.7-1.7-1.4-2.5-2.1
			c-0.9-0.8-1.9-1.5-2.8-2.3c-0.1-0.1-0.2-0.2-0.4-0.3c-8.3-6.7-16.9-12.9-25.6-18.6c-0.3-0.2-0.7-0.5-1-0.7h0
			c-4-2.6-8-5.1-12.1-7.5h2.4c3.7,2.2,7.3,4.5,11,6.9c0.1,0,0.1,0.1,0.2,0.1h0c0.6,0.4,1.3,0.8,1.9,1.2c0.4,0.3,0.9,0.6,1.3,0.9h0
			c18.3,12.3,35.9,26.8,52.7,43.5c0,0,0.1,0.1,0.1,0.1C1064.6,44.8,1064.8,45,1064.9,45.1z"/>
	</g>
	<g>
		<path class="st4" d="M914.7,2.2l-1.3,0.2l-0.1,0c-0.2,0-11.3,1.8-27.5,6.8c-9.3,2.9-20.4,7-32,12.5c-32,15.1-39,56.6-39.1,57.1
			l-0.5,3.2l1.6-2.8c0,0,0.2-0.4,0.7-1.1c0.1-0.2,0.2-0.3,0.3-0.5c4.1-6.4,20.4-29.7,38.4-28.4c20,1.4,52.2-37.7,57.8-44.8l0,0
			c0.4-0.5,0.7-0.9,0.8-1l0.8-1.1L914.7,2.2L914.7,2.2z M855.3,47.9c-3-0.2-6,0.2-8.9,1.1c-12.3,3.8-22.6,16.3-27.9,23.7
			c-0.8,1.1-1.4,2.1-2,2.9c0.2-1,0.5-2.1,0.9-3.4c0,0,0,0,0,0c3.4-12.3,13.2-38.3,36.8-49.4c23.6-11.2,44.9-16.3,54.2-18.3
			c0,0,0,0,0,0c1.5-0.3,2.6-0.5,3.5-0.7c-0.2,0.2-0.4,0.4-0.6,0.7C904.1,13.4,873.7,49.2,855.3,47.9z"/>
	</g>
	<g>
		<path class="st4" d="M913.1,2.4l0.5,1.1c-0.9,0.4-87.6,37.8-97,74.6l-1.2-0.3c4-15.7,21.7-33.2,52.5-51.9
			C890.9,12,912.9,2.5,913.1,2.4z"/>
	</g>
	<g>
		<path class="st4" d="M1108.8-8c-10,7.6-23.2,14.4-38.7,14.5c-26.1,0.2-47.6-4.1-56.8-6.3c-1.4-0.3-2.6-0.6-3.4-0.8
			c0.2-0.1,0.5-0.2,0.8-0.4c3-1.4,8.7-4.1,15.7-7h-3.3c-7.6,3.2-13.3,6.1-14.9,6.9c-0.2,0.1-0.3,0.1-0.4,0.2l-0.9,0.5h0l-0.5,0.2
			l1.5,0.4c0,0,0,0,0.1,0c0.3,0.1,1.5,0.4,3.6,0.9h0c8.5,2.1,30.9,6.8,58.5,6.6c16.4-0.1,30.4-7.6,40.6-15.7H1108.8z"/>
	</g>
	<g>
		<path class="st4" d="M1087-8h5.4c-9.6,2.5-20.7,4.5-33.5,5.9c-19.3,2.2-37.2,2.4-45.7,2.3c-1.2,0-2.2,0-3,0c-1.4,0-2.1,0-2.2,0
			l0-1.2c0,0,0.1,0,0.2,0c0.4,0,1.1,0,2.2,0C1020.4-0.9,1056.5-1,1087-8z"/>
	</g>
	<g>
		<path class="st4" d="M1067,46.6c10,3,40.9,12.9,48.2,24.4c3.5,5.6,9.5,9.5,15.6,12.3v-1.4c-5.8-2.7-11.4-6.4-14.6-11.6
			c-8.8-13.9-48.7-25-51.9-25.8c-0.1,0-0.1,0-0.1,0l-2-0.5l1.3,1.5c0,0,0,0,0.1,0.1l0,0c0,0,0,0,0,0c1.2,1.4,15.8,17.3,37.7,33.2
			c10,7.3,20.6,10.2,29.4,11.2v-1.2c-8.6-1-19-3.8-28.7-10.9c-14.9-10.8-26.4-21.7-32.6-27.9c0,0,0,0,0,0c-1.5-1.5-2.7-2.8-3.6-3.7
			C1066.3,46.4,1066.6,46.5,1067,46.6C1067,46.6,1067,46.6,1067,46.6z"/>
	</g>
	<g>
		<path class="st4" d="M1130.8,84.3c-23.7-8.7-54.7-31-63.8-37.8c0,0,0,0,0,0c-1.5-1.1-2.4-1.8-2.6-1.9c0,0,0,0,0,0c0,0,0,0,0,0
			l-0.7,1c0.1,0.1,0.2,0.2,0.4,0.3c0.9,0.6,2.7,2.1,5.4,4c0,0,0,0,0,0c11.9,8.7,39.5,27.9,61.3,35.7V84.3z"/>
	</g>
	<g>
		<path class="st4" d="M831-8c-2.7,8.3-3.4,17.2-3.5,23.2c0,0,0,0,0,0c0,1.3,0,2.5,0,3.5c-0.4-0.9-0.8-2-1.2-3.3c0,0,0,0,0,0
			c-1.8-5.4-4.2-13.7-5-23.3h-1.2c1.5,17,7.5,30.1,7.6,30.3l1.4,2.9l-0.2-3.2c0,0,0-0.5-0.1-1.3c0-0.2,0-0.4,0-0.6v0
			c-0.1-4.6-0.1-17.1,3.6-28.1H831z"/>
	</g>
	<g>
		<path class="st4" d="M828.8,20.1c0.1,0.2,0.1,0.4,0.2,0.6l-0.2,0.1l-1,0.3c-0.6-1.8-1.2-3.7-1.5-5.7c0,0,0,0,0,0
			C825.1,8.8,825.4,1,827.1-8h1.3c-1.6,8.4-2.1,16.4-0.9,23.2c0,0,0,0,0,0C827.8,16.9,828.2,18.5,828.8,20.1L828.8,20.1z"/>
	</g>
	<g>
		<path class="st4" d="M936.4,43.1c-11.7-15.5-24.1-25.1-25.7-26.3c-0.1-0.1-0.2-0.1-0.2-0.1l-0.8-0.6l-0.4-0.3l0.2,0.9l0.1,0.6
			c0,0.2,0.1,0.7,0.3,1.6v0c1.4,6.9,7.5,34.1,18,38.6c9.6,4.2,11.8,20.7,12.2,25.2c0,0,0,0,0,0c0,0.1,0,0.2,0,0.3
			c0,0.5,0.1,0.8,0.1,0.8l0.2,3.2l1-3.1C941.3,83.7,949.1,59.9,936.4,43.1z M928.3,56.4c-9.4-4.1-15.4-28.8-17.1-36.8v0
			c-0.1-0.3-0.1-0.6-0.2-0.9c0.7,0.6,1.7,1.3,2.9,2.3c0,0,0,0,0,0c4.9,4.2,13.4,12,21.5,22.9c8.3,10.9,7.6,25,6.2,33.1c0,0,0,0,0,0
			c-0.2,1.3-0.4,2.4-0.7,3.3c-0.1-1.1-0.3-2.4-0.6-3.8c0,0,0,0,0,0C939.1,69.6,935.9,59.7,928.3,56.4z"/>
	</g>
	<g>
		<path class="st4" d="M910.6,16.8c1.5,1.8,35.8,44.1,30.5,66.4l-1.2-0.3c5.1-21.7-29.9-65-30.3-65.4L910.6,16.8z"/>
	</g>
	<g>
		<path class="st4" d="M877,92.5l-1.3,0.2l-0.3,0.1c-0.1,0-6,1.1-14.7,3.8c-5,1.6-11,3.7-17.3,6.5c-17.4,7.7-22.3,26.7-22.4,26.9
			l-0.8,3l1.8-2.5c0,0,0.2-0.2,0.4-0.6c0.1-0.1,0.1-0.1,0.2-0.2c2.4-3,11.5-13.8,20.9-13.7c10.6,0.1,28.8-18.5,31.9-21.8
			c0.2-0.2,0.4-0.4,0.4-0.5l1-1l0.3-0.3L877,92.5z M873.1,95.1c-5.5,5.5-20.6,19.8-29.4,19.7c-6.3-0.1-12.4,4.3-16.6,8.4
			c0,0,0,0,0,0c-1.5,1.4-2.7,2.8-3.7,3.9c0.3-0.8,0.7-1.8,1.2-2.8c0,0,0,0,0,0c2.8-6.1,8.6-15.3,19.4-20.1
			c10.2-4.5,19.4-7.3,25.3-8.8c0,0,0,0,0,0c1.9-0.5,3.4-0.8,4.5-1.1C873.6,94.6,873.3,94.9,873.1,95.1L873.1,95.1z"/>
	</g>
	<g>
		<path class="st4" d="M875.4,92.8l0.5,1.1c-0.5,0.2-47.1,19.3-53.1,36l-1.1-0.4C827.7,112.4,873.4,93.6,875.4,92.8z"/>
	</g>
	<g>
		<path class="st4" d="M908.7,132.3c-2-34-24.2-56.9-27.2-59.8c0,0,0,0,0,0c-0.1-0.1-0.1-0.1-0.2-0.1c-0.1-0.1-0.2-0.2-0.2-0.2
			l-0.1-0.1c0,0-0.1,0-0.1,0l-0.7-0.6L880,71l0.2,1.2v0l0.1,0.5c0.1,0.8,0.2,1.7,0.3,2.5v0c6.8,46.6,28,72.2,28.2,72.5l1.2,1.4
			L908.7,132.3z M907.6,144.1c-5.5-7.7-20.5-31.7-25.9-69.5v0c0-0.1,0-0.2-0.1-0.3c0.8,0.8,1.9,2,3.2,3.6
			c7.3,8.6,21.1,28.2,22.6,54.5l0.7,9.5v0l0.3,3.4C908.2,144.9,907.9,144.6,907.6,144.1L907.6,144.1z"/>
	</g>
	<g>
		<path class="st4" d="M881,72c0.3,0.2,7.1,4.8,28.8,75.1l-1.2,0.4c-21.5-69.8-28.2-74.3-28.2-74.4L881,72z"/>
	</g>
	<g>
		<path class="st4" d="M876.7,128.8C876.7,128.7,876.7,128.7,876.7,128.8C876.7,128.7,876.7,128.7,876.7,128.8
			C876.7,128.7,876.7,128.7,876.7,128.8c-0.1-0.3-0.2-0.4-0.2-0.4l0-0.1c0,0,0,0,0,0l-0.7-1.4l-0.3,1.3v0l-0.1,0.3
			c-7.7,34.9,0.8,58.8,0.9,59l0.7,1.8l3.4-12.4C887.5,153.2,878.3,132,876.7,128.8z M879.2,176.5l-1.5,5.4c0,0,0,0,0,0l-0.9,3.2
			c-0.1-0.4-0.3-0.9-0.4-1.5c-1.9-7.5-5.6-26.8-0.4-52.6v0c0-0.2,0.1-0.4,0.1-0.5c0.4,1,1,2.4,1.6,4.2
			C880.7,143,884.5,159.1,879.2,176.5z"/>
	</g>
	<g>
		<path class="st4" d="M876.4,128.1c0.4,0.5,3.7,6.1,1.1,59.1l-1.2-0.1c2.6-52.4-0.7-58.1-0.8-58.3L876.4,128.1z"/>
	</g>
	<g>
		<path class="st4" d="M788.3,24.4C788.3,24.4,788.3,24.4,788.3,24.4c-0.1-0.3-0.1-0.4-0.1-0.5l-0.1-0.2c0,0,0,0,0,0l-0.4-1.4
			l-0.6,1.5c-18.7,44.9-13,78.8-12.9,79.2l0.3,1.9l7.3-15.2C797.1,59.4,789.5,28.5,788.3,24.4z M780.7,89.2l-4.1,8.6c0,0,0,0,0,0
			l-1.5,3.1c0-0.4-0.1-0.9-0.1-1.4c0,0,0,0,0,0c-0.9-9.5-1.8-37.7,12.5-73.1v0c0-0.1,0.1-0.2,0.1-0.3c0.3,1.1,0.6,2.7,1,4.7v0
			C790.5,41.8,792.6,65.7,780.7,89.2z"/>
	</g>
	<g>
		<path class="st4" d="M788.1,23.7c0.2,0.3,3.7,7.7-12.8,79.4l-1.2-0.3c16.4-71.2,13-78.4,12.9-78.5L788.1,23.7z"/>
	</g>
	<g>
		<path class="st4" d="M1011.2,45.5c-1.5-25.1-13.9-44.1-21.6-53.6H988c7.4,9,20.4,28.2,21.9,53.7l0.7,9.5c0,0,0,0,0,0l0.3,3.4
			c-0.2-0.3-0.5-0.7-0.8-1.2c-5.3-7.5-19.4-29.9-25.3-65.4h-1.2c7.3,44.4,27.5,68.7,27.7,68.9l1.2,1.4L1011.2,45.5z"/>
	</g>
	<g>
		<path class="st4" d="M1012.3,60.3l-1.2,0.4c-0.3-1.1-0.7-2.2-1-3.3C997.6,17.1,990.3-0.5,986.5-8h1.3c4,8,11.1,25.4,22.9,63.2
			c0,0,0,0,0,0C1011.2,56.8,1011.8,58.6,1012.3,60.3z"/>
	</g>
	<g>
		<path class="st4" d="M1062.1,78.4c-1.5-26.6-15.5-46.4-22.9-55.1c-2.1-2.4-3.6-4-4.3-4.7c0,0,0,0,0,0c-0.2-0.2-0.3-0.3-0.3-0.3
			l-0.1-0.1c0,0-0.1,0-0.1,0l-1.1-1l0.2,1.5l0,0.1c6.4,48.2,28.4,74.7,28.6,75l1.2,1.4L1062.1,78.4z M1061.1,90.3
			c-5.5-7.7-20.5-31.6-25.9-69.4v0c0-0.1,0-0.2-0.1-0.4c0.8,0.8,1.9,2,3.2,3.6c7.3,8.6,21.1,28.2,22.6,54.5l0.7,9.6c0,0,0,0,0,0
			l0.3,3.4C1061.7,91.1,1061.4,90.7,1061.1,90.3L1061.1,90.3z"/>
	</g>
	<g>
		<path class="st4" d="M1034.5,18.2c0.3,0.2,7.1,4.8,28.8,75.1l-1.2,0.4c-21.2-68.6-28-74.2-28.3-74.4L1034.5,18.2z"/>
	</g>
	<g>
		<path class="st4" d="M1114.9,167c0-1-7-7.6-20.7-19.4c-21.1-18.2-76.9-22.4-77.4-22.5l-2-0.1l1.6,1.2c28.8,22.5,53.9,32.5,69.8,37
			c17.3,4.9,28,4.4,28.1,4.4l0.2,0l0.4-0.3L1114.9,167z M1019.3,127C1019.3,127,1019.3,127,1019.3,127c-0.2-0.2-0.4-0.3-0.6-0.5
			c1.5,0.1,3.6,0.4,6.3,0.7h0c16.4,1.9,52.5,7.6,68.3,21.3c9.3,8,14.3,12.6,17,15.2c0,0,0,0,0,0c1.4,1.3,2.2,2.2,2.6,2.7
			c-0.3,0-0.6,0-0.9,0C1103.3,166.2,1066.3,162.8,1019.3,127z"/>
	</g>
	<g>
		<path class="st4" d="M1016.9,125.2c0.6,0.1,56.6,12.5,97.5,41.3l-0.7,1c-40.8-28.6-96.5-41-97.1-41.1L1016.9,125.2z"/>
	</g>
</g>
<g>
	<g>
		<path class="st4" d="M109.8,332c-0.5,0.1-1,0.1-1.5,0.2c-0.1,0-0.1,0-0.2,0c-0.3,0-0.5,0.1-0.7,0.1h0c-12.8,1.2-25,1.2-36.4-0.2
			c-0.1,0-0.2,0-0.2,0c-0.2,0-0.3,0-0.5-0.1c-0.3,0-0.6-0.1-0.9-0.1c-7.7-1-15-2.5-22.1-4.6h0c-0.3-0.1-0.6-0.2-0.9-0.3
			c-6.5-2-12.7-4.6-18.6-7.6c-6.9-3.6-12.6-7.4-18.1-11.1c-6.9-4.7-13.6-9.1-22-12.5c-0.2-0.1-0.4-0.2-0.6-0.3
			c-3.4-1.3-7.1-2.5-11.2-3.4c-0.4-0.1-0.9-0.2-1.3-0.3c-0.2-0.1-0.5-0.1-0.7-0.1c-0.3-0.1-0.6-0.1-0.9-0.2c-0.2,0-0.4-0.1-0.6-0.1
			c-2.1-0.4-4.3-0.7-6.5-0.9v-1.3c2.1,0.2,4.2,0.5,6.3,0.8c0,0,0.1,0,0.1,0l0,0c1.3,0.2,2.5,0.5,3.8,0.7c4.3,0.9,8.2,2.2,11.8,3.6
			c0,0,0,0,0,0c0.5,0.2,0.9,0.4,1.4,0.6c0.3,0.1,0.5,0.2,0.8,0.3h0c7.7,3.3,13.9,7.5,20.4,11.9c5.5,3.7,11.1,7.5,18,11
			c6,3.1,12.3,5.7,19,7.7c0,0,0,0,0,0c0.5,0.1,0.9,0.3,1.4,0.4c0,0,0,0,0,0c0.5,0.2,1.1,0.3,1.6,0.5h0c6,1.7,12.2,2.9,18.7,3.7
			c0.1,0,0.2,0,0.3,0h0c12.1,1.5,25,1.6,38.6,0.3h0c0.6-0.1,1.1-0.1,1.7-0.2l0.1,1L109.8,332z"/>
	</g>
	<g>
		<path class="st4" d="M19.1,129.6c-0.1,0.1-0.3,0.3-0.4,0.4c0,0-0.1,0.1-0.1,0.1c-8.5,8.5-16.4,17.2-23.9,26.2
			c-0.7,0.9-1.5,1.8-2.2,2.7c-0.8,1-1.6,2-2.4,3c-0.1,0.1-0.2,0.3-0.3,0.4c-7.2,9-13.8,18.1-19.9,27.5c-0.2,0.4-0.5,0.7-0.7,1.1
			c-1.1,1.8-2.3,3.5-3.4,5.3v-2.5c0.9-1.4,1.8-2.8,2.7-4.2c0-0.1,0.1-0.1,0.1-0.2v0c0.4-0.7,0.9-1.4,1.3-2v0c0.3-0.5,0.6-1,1-1.4v0
			c13.2-19.7,28.8-38.6,46.7-56.6c0,0,0.1-0.1,0.1-0.1c0.2-0.2,0.3-0.3,0.5-0.5L19.1,129.6L19.1,129.6z"/>
	</g>
	<g>
		<path class="st4" d="M54.7,396.3c0,0-0.5-0.3-1.2-0.7c-0.2-0.1-0.4-0.2-0.6-0.4c0,0,0,0,0,0c-6.9-4.4-31.9-21.9-30.5-41.3
			c1.5-21.5-40.5-56.1-48.1-62.1c-0.6-0.5-0.9-0.7-1.1-0.9l-1.1-0.9l0,0L-28,290l0,0.1l0.2,1.4l0,0.2c0,0.2,1.9,12.1,7.3,29.6
			c3.2,10,7.5,21.9,13.4,34.4c16.2,34.4,60.8,41.9,61.3,42l3.4,0.6L54.7,396.3z M-5.8,355c-12-25.4-17.6-48.2-19.6-58.2
			c-0.3-1.6-0.6-2.8-0.7-3.7c0.2,0.2,0.5,0.4,0.7,0.6c9.5,7.7,48,40.4,46.6,60.2c-0.2,3.3,0.2,6.5,1.2,9.6
			c4.1,13.2,17.5,24.2,25.5,29.9l0,0c1.2,0.8,2.2,1.5,3.1,2.1c-1-0.2-2.3-0.6-3.7-0.9C34.1,390.9,6.2,380.4-5.8,355z"/>
	</g>
	<g>
		<path class="st4" d="M-27.7,291.7l1.2-0.5c0.4,0.9,40.6,94.1,80.1,104.2l-0.3,1.3c-16.9-4.3-35.7-23.3-55.8-56.4
			C-17.4,315.6-27.6,292-27.7,291.7z"/>
	</g>
	<g>
		<path class="st4" d="M-22.1,123.1c-0.1-14.4-5.5-27-12.2-37.2v2.4c6.1,9.7,10.8,21.5,10.9,34.8c0.2,28.1-4.4,51.1-6.7,61.1
			c-0.4,1.5-0.7,2.8-0.9,3.7c-0.1-0.3-0.3-0.5-0.4-0.9c0,0,0,0,0,0c-0.7-1.5-1.7-3.5-2.8-6.1v3.2c1.3,2.7,2.3,4.7,2.7,5.5
			c0.1,0.2,0.2,0.3,0.2,0.4l0.5,1l0.3,0.5l0.5-1.6c0,0,0,0,0-0.1c0.1-0.3,0.5-1.6,1-3.9v0C-26.9,176.7-21.9,152.7-22.1,123.1z"/>
	</g>
	<g>
		<path class="st4" d="M-30.1,184.1c0,1.3,0,2.3,0,3.2c0,1.5,0,2.3,0,2.3l-1.3,0c0,0,0-0.1,0-0.3c0-0.4,0-1.2,0-2.4c0,0,0,0,0,0
			c0.1-7.6,0.1-30.1-2.8-54.5v-10.2c0.6,4.1,1.2,8.3,1.7,12.7C-30.3,155.8-30,175-30.1,184.1z"/>
	</g>
	<g>
		<path class="st4" d="M65.5,36.3l-0.8-3.3l-0.5,3.3c0,0-0.1,0.4-0.2,1.1c0,0.1,0,0.3-0.1,0.4c-1.1,5.9-5.9,27.6-18.7,35.7
			c-15,9.4-26.8,52.3-27.8,55.7c0,0.1,0,0.1,0,0.2l-0.6,2.1l1.6-1.4c0,0,0,0,0.1-0.1c1.2-1.1,18.5-16.8,35.7-40.5
			C72.3,64.8,65.6,36.6,65.5,36.3z M53.3,88.7c-11.6,16-23.3,28.4-29.9,35c0,0,0,0,0,0c-1.6,1.6-3,2.9-3.9,3.8
			c0.1-0.3,0.2-0.7,0.3-1.1v0c3.2-10.7,13.8-43.9,26.3-51.8c10.3-6.5,15.5-20.9,17.8-30c0,0,0,0,0,0c0.4-1.7,0.8-3.2,1-4.4
			c0.1,1,0.3,2.2,0.4,3.5v0C66.1,53.6,65.5,72,53.3,88.7z"/>
	</g>
	<g>
		<path class="st4" d="M17.6,129.2c0.5-0.6,50-65.3,46.3-91.7l1.3-0.2c3.8,27-44.5,90-46.6,92.7L17.6,129.2z"/>
	</g>
	<g>
		<path class="st4" d="M-6.7,382.3c0,0-0.5,0-1.4,0.1c-0.2,0-0.4,0-0.7,0h0c-4.3,0.1-15,0.1-25.5-2.5v1.4c7.4,1.8,14.9,2.3,20.2,2.4
			c0,0,0,0,0,0c1.4,0,2.7,0,3.8,0c-1,0.4-2.2,0.8-3.6,1.3c0,0,0,0,0,0c-4.9,1.7-12.1,3.7-20.4,4.9v1.3c15.9-2.1,27.7-7.5,27.9-7.7
			l3.2-1.5L-6.7,382.3z"/>
	</g>
	<g>
		<path class="st4" d="M-7.7,383.4c-1.9,0.7-4,1.2-6.2,1.6c0,0,0,0,0,0c-5.8,1.1-12.7,1-20.4-0.1v-1.4c7.3,1.1,14.2,1.3,20.2,0.2
			c0,0,0,0,0,0c1.8-0.3,3.6-0.8,5.3-1.4h0c0.2-0.1,0.4-0.1,0.6-0.2l0.1,0.2L-7.7,383.4z"/>
	</g>
	<g>
		<path class="st4" d="M59.9,261.5c-0.3-0.1-25.8-8.4-43.8,5.2c-16.7,12.6-26.9,25.9-28.3,27.7c-0.1,0.1-0.1,0.2-0.2,0.2l-0.6,0.9
			l-0.3,0.4l1-0.2l0.6-0.1c0.2,0,0.8-0.1,1.7-0.3h0c7.5-1.5,36.6-8.1,41.5-19.3c4.5-10.4,22.1-12.7,27-13.1c0,0,0,0,0,0
			c0.1,0,0.3,0,0.4,0c0.5,0,0.9-0.1,0.9-0.1l3.5-0.2L59.9,261.5z M51.9,262.4C51.9,262.4,51.9,262.4,51.9,262.4
			c-7.5,1.4-18.1,4.8-21.7,13c-4.4,10.1-31,16.5-39.6,18.4h0c-0.4,0.1-0.7,0.1-1,0.2c0.6-0.8,1.4-1.8,2.5-3.1c0,0,0,0,0,0
			c4.5-5.2,12.9-14.3,24.6-23.2c11.7-8.9,26.9-8.1,35.6-6.7c0,0,0,0,0,0c1.4,0.2,2.5,0.5,3.6,0.7C54.8,262,53.4,262.2,51.9,262.4
			C51.9,262.4,51.9,262.4,51.9,262.4z"/>
	</g>
	<g>
		<path class="st4" d="M-12.3,294.5c1.9-1.6,47.4-38.5,71.4-32.8l-0.3,1.3c-23.3-5.5-69.8,32.2-70.3,32.6L-12.3,294.5z"/>
	</g>
	<g>
		<path class="st4" d="M109.9,389.4c0,0-0.2-0.2-0.6-0.5c-0.1-0.1-0.1-0.1-0.2-0.2c-3.3-2.6-14.8-12.4-14.7-22.4
			c0.1-11.4-19.9-31-23.4-34.3c-0.3-0.2-0.4-0.4-0.5-0.5l-1.1-1h0l-0.3-0.3l0,0.3l0.2,1.3l0.1,0.3c0,0.1,1.2,6.5,4.1,15.8
			c1.7,5.4,4,11.8,7,18.5c8.3,18.7,28.7,24,28.9,24l3.3,0.8L109.9,389.4z M81.7,366c-4.8-10.9-7.8-20.9-9.4-27.2c0,0,0,0,0,0
			c-0.5-2-0.9-3.7-1.2-4.9c0.2,0.2,0.5,0.5,0.8,0.8c5.9,5.9,21.2,22.1,21.2,31.6c-0.1,6.8,4.7,13.3,9,17.9c0,0,0,0,0,0
			c1.5,1.6,3,2.9,4.2,3.9c-0.9-0.3-1.9-0.8-3-1.3C96.7,383.9,86.8,377.6,81.7,366z"/>
	</g>
	<g>
		<path class="st4" d="M69.4,332.3l1.2-0.5c0.2,0.5,20.8,50.7,38.6,57l-0.4,1.2C90.4,383.5,70.3,334.4,69.4,332.3z"/>
	</g>
	<g>
		<path class="st4" d="M111.8,296.5c-36.3,2.1-60.8,25.7-64.2,29.1c0,0,0,0-0.1,0.1c-0.1,0.1-0.1,0.1-0.2,0.2
			c-0.1,0.1-0.2,0.2-0.2,0.2l-0.1,0.1c0,0,0,0.1,0,0.1l-0.7,0.7l-0.4,0.5l1.3-0.2h0l0.5-0.1c0.9-0.1,1.8-0.2,2.7-0.4h0
			c50.1-7.3,77.6-30.1,77.9-30.3l1.5-1.3L111.8,296.5z M49.9,325.5c-0.1,0-0.2,0-0.4,0.1c0.9-0.8,2.2-2,3.8-3.5
			c9.2-7.8,30.3-22.7,58.5-24.3l10.3-0.8c0,0,0,0,0,0l3.6-0.3c-0.4,0.3-0.8,0.6-1.2,0.9C116.2,303.6,90.5,319.7,49.9,325.5z"/>
	</g>
	<g>
		<path class="st4" d="M47.1,326.2c0.2-0.3,5.2-7.6,80.6-30.9l0.4,1.2c-75,23.1-79.9,30.3-79.9,30.3L47.1,326.2z"/>
	</g>
	<g>
		<path class="st4" d="M159.7,326.9c-25.4-7.6-48.1,2.3-51.6,3.9c0,0,0,0,0,0h0c0,0,0,0,0,0c-0.3,0.1-0.4,0.2-0.4,0.2l-0.1,0.1
			c0,0,0,0,0,0l-1.5,0.8l1.4,0.3h0l0.3,0.1c37.5,8.3,63.1-0.9,63.4-1l1.9-0.7L159.7,326.9z M167,331.1c-8,2.1-28.8,6-56.5,0.4
			c-0.2,0-0.4-0.1-0.6-0.1c1.1-0.5,2.6-1.1,4.6-1.7c0,0,0,0,0,0c8.9-3.1,26.1-7.1,44.8-1.5l5.8,1.6c0,0,0,0,0,0l3.4,1
			C168.1,330.8,167.6,331,167,331.1C167,331.1,167,331.1,167,331.1z"/>
	</g>
	<g>
		<path class="st4" d="M107.4,331.2c0.5-0.4,6.5-4,63.5-1.1l-0.1,1.3c-56.3-2.8-62.4,0.7-62.7,0.9L107.4,331.2z"/>
	</g>
	<g>
		<path class="st4" d="M66.1,432.9c-32.5-16.4-65.7-8.3-70.2-7.1c0,0,0,0,0,0c-0.3,0.1-0.5,0.1-0.5,0.1l-0.2,0.1c0,0,0,0,0,0
			l-1.5,0.5l1.7,0.7c48.2,20.1,84.7,14,85.1,13.9l2-0.4L66.1,432.9z M-2,426.8C-2,426.8-2,426.8-2,426.8c-0.1,0-0.2-0.1-0.3-0.1
			c1.2-0.3,2.9-0.7,5.1-1.1h0c0,0,0,0,0,0c0,0,0,0,0,0c11.9-2.1,37.6-4.4,62.8,8.4l9.3,4.5c0,0,0,0,0,0l3.3,1.6
			c-0.4,0.1-1,0.1-1.5,0.2C66.4,441.2,36.1,442.2-2,426.8z"/>
	</g>
	<g>
		<path class="st4" d="M-4.8,426c0.3-0.2,8.3-4,85.3,13.8l-0.3,1.3C3.7,423.4-4.1,427.1-4.2,427.1L-4.8,426z"/>
	</g>
	<g>
		<path class="st4" d="M18.6,186.4c-23.3,1.4-41.7,11.6-52.9,19.6v1.6c10.9-8,29.4-18.5,53-19.9l10.3-0.8c0,0,0,0,0,0l3.6-0.3
			c-0.4,0.3-0.8,0.6-1.2,0.9c0,0,0,0,0,0c-7.7,5.5-30.2,19.6-65.6,26.4v1.3c44.7-8.5,69.1-28.7,69.4-28.9l1.5-1.3L18.6,186.4z"/>
	</g>
	<g>
		<path class="st4" d="M34.9,186.4c-1.2,0.4-2.4,0.7-3.5,1.1c0,0,0,0,0,0c-36.5,11.3-55.6,18.7-65.6,23.2v-1.4
			c10.1-4.5,28.8-11.7,63.2-22.4c0,0,0,0,0,0c1.8-0.6,3.7-1.1,5.5-1.7L34.9,186.4z"/>
	</g>
	<g>
		<path class="st4" d="M53.9,131.6c-28.6,1.7-49.8,16.6-59.3,24.6c-2.6,2.2-4.3,3.9-5,4.6c0,0,0,0,0,0c-0.2,0.2-0.3,0.3-0.3,0.3
			l-0.1,0.1c0,0-0.1,0.1-0.1,0.1l-1.1,1.2l1.6-0.2l0.2,0c51.8-6.9,80.3-30.5,80.5-30.7l1.5-1.3L53.9,131.6z M66.7,132.8
			c-8.3,5.9-34,22-74.6,27.9c0,0,0,0,0,0c-0.1,0-0.3,0-0.4,0.1c0.9-0.8,2.2-2,3.9-3.5c9.3-7.8,30.3-22.7,58.5-24.3l10.3-0.8l3.6-0.3
			C67.6,132.1,67.1,132.4,66.7,132.8C66.7,132.8,66.7,132.8,66.7,132.8z"/>
	</g>
	<g>
		<path class="st4" d="M-10.8,161.3c0.2-0.3,5.2-7.6,80.6-30.9l0.4,1.2C-3.5,154.4-9.5,161.7-9.7,162L-10.8,161.3z"/>
	</g>
	<g>
		<path class="st4" d="M149.8,75.6l0-0.2l-0.4-0.4l-0.3,0c-1.1,0-8.1,7.5-20.8,22.2c-19.5,22.7-24.1,82.6-24.2,83.2l-0.2,2.1
			l1.3-1.7c24.2-31,35-57.9,39.8-75C150.3,87.2,149.8,75.7,149.8,75.6z M106.1,177.6C106.1,177.6,106.1,177.6,106.1,177.6
			c-0.2,0.2-0.3,0.4-0.5,0.6c0.1-1.6,0.4-3.9,0.7-6.8c2.1-17.6,8.2-56.3,22.9-73.4c8.6-10,13.5-15.4,16.3-18.3c0,0,0,0,0,0
			c1.4-1.5,2.3-2.3,2.9-2.8c0,0.3,0,0.6,0,1C148.2,87.4,144.6,127.2,106.1,177.6z"/>
	</g>
	<g>
		<path class="st4" d="M104.2,180.3c0.1-0.6,13.4-60.8,44.3-104.8l1.1,0.7c-30.7,43.8-44,103.7-44.1,104.3L104.2,180.3z"/>
	</g>
</g>
<g>
	<path class="st5" d="M266.3,133.5c0.4,3.4-0.8,5-3.1,6.5c-3.4,1.4-7.2-9-1.5-11.7C263.8,128.2,265.9,130.5,266.3,133.5z"/>
	<path class="st5" d="M295.4,83.9c0.4,3.4-0.8,5-3.1,6.5c-3.4,1.4-7.2-9-1.5-11.7C293,78.6,295,80.9,295.4,83.9z"/>
	<path class="st5" d="M228.9,137.9c0.4,3.4-0.8,5-3.1,6.5c-3.4,1.4-7.2-9-1.5-11.7C226.4,132.6,228.5,134.8,228.9,137.9z"/>
	<path class="st5" d="M260.2,83.2c0.4,3.4-0.8,5-3.1,6.5c-3.4,1.4-7.2-9-1.5-11.7C257.7,77.9,259.8,80.1,260.2,83.2z"/>
	<path class="st5" d="M227.1,111.9c0.4,3.4-0.8,5-3.1,6.5c-3.4,1.4-7.2-9-1.5-11.7C224.6,106.6,226.7,108.9,227.1,111.9z"/>
	<path class="st5" d="M288.9,125.3c-0.5,5.4-9.1,3.8-11-2.6c-0.1-3,2.6-4.3,5.2-4.2C286.3,119.4,288.9,122.5,288.9,125.3z"/>
	<path class="st5" d="M262.7,165.8c-0.3,4-0.5,7.5-5.4,8c-4.2-1.1-5.9-9.8,0.4-15.2C260.1,158.4,262.4,161.6,262.7,165.8z"/>
	<path class="st5" d="M286.4,150.3c1.1,4.8-2.3,6.8-4.9,6c-2.1-2.2-10.7-11-2-15.1C282.5,142.1,285.6,146.2,286.4,150.3z"/>
	<path class="st5" d="M246.5,136.1c0.3,6.6-4.1,6.9-6.3,4.8c-2.1-3.6-1.7-9.5,2.7-10C244.9,130.7,246.4,132.9,246.5,136.1z"/>
	<path class="st5" d="M288.6,174.6c0.3,6.6-4.1,6.9-6.3,4.8c-2.1-3.6-1.7-9.5,2.8-10C287,169.2,288.5,171.5,288.6,174.6z"/>
	<path class="st5" d="M317,155.6c-4.8,6-7.6,1-11.9-4.7c3.3-2.2-5.6-8.1,4.7-6.4C313.8,147.1,317,152,317,155.6z"/>
	<path class="st5" d="M315.3,132.4c-2.6,5.7-10.5,1.8-13.1-2.9c-3.2-8.2,0.1-8.4,6.3-6.6C312.7,125.3,315.7,129.5,315.3,132.4z"/>
	<path class="st5" d="M256.5,111.4c-1.9,4.8-4.6,5.7-6,3.8c-0.5-1.7-1.9-6.7,4.2-8.3C256.5,106.9,257.3,108.9,256.5,111.4z"/>
	<path class="st5" d="M237.2,166.4c-1.9,4.8-4.6,5.7-6,3.8c-0.5-1.7-1.9-6.7,4.2-8.3C237.2,161.9,238,163.9,237.2,166.4z"/>
	<path class="st5" d="M277.3,95.4c-1.9,4.8-4.6,5.7-6,3.8c-0.5-1.7-1.9-6.7,4.2-8.3C277.3,90.9,278.1,92.8,277.3,95.4z"/>
	<path class="st5" d="M294.7,108c-3.5,3.1-9,4.5-11.7-0.1c-0.8-2.8,2.9-4.8,7.9-5.5C294,103.3,295.7,105.9,294.7,108z"/>
	<path class="st5" d="M271.6,116.9c-0.1,5.4-7.9,7.9-8.8,0.5c0.4-2.9,2.6-4.2,5.3-5C270.4,112.4,271.9,114.4,271.6,116.9z"/>
</g>
<g>
	<path class="st5" d="M964.6,370.5c0.5,4.3-1,6.4-4,8.4c-4.3,1.8-9.2-11.5-1.9-15C961.5,363.7,964.1,366.6,964.6,370.5z"/>
	<path class="st5" d="M1002,307c0.5,4.3-1,6.4-4,8.4c-4.3,1.8-9.2-11.5-1.9-15C998.8,300.2,1001.5,303.1,1002,307z"/>
	<path class="st5" d="M916.7,376.1c0.5,4.3-1,6.4-4,8.4c-4.3,1.8-9.2-11.5-1.9-15C913.5,369.3,916.2,372.2,916.7,376.1z"/>
	<path class="st5" d="M956.8,306c0.5,4.3-1,6.4-4,8.4c-4.3,1.8-9.2-11.5-1.9-15C953.7,299.2,956.3,302.1,956.8,306z"/>
	<path class="st5" d="M914.4,342.9c0.5,4.3-1,6.4-4,8.4c-4.3,1.8-9.2-11.5-1.9-15C911.2,336.1,913.9,339,914.4,342.9z"/>
	<path class="st5" d="M993.6,360c-0.6,6.9-11.6,4.9-14.1-3.4c-0.1-3.9,3.4-5.5,6.6-5.4C990.2,352.4,993.6,356.4,993.6,360z"/>
	<path class="st5" d="M960,411.9c-0.3,5.1-0.7,9.6-6.9,10.2c-5.4-1.4-7.5-12.6,0.5-19.5C956.7,402.4,959.6,406.5,960,411.9z"/>
	<path class="st5" d="M990.4,392.1c1.5,6.2-3,8.7-6.3,7.7c-2.7-2.8-13.7-14.2-2.6-19.4C985.4,381.6,989.4,386.8,990.4,392.1z"/>
	<path class="st5" d="M939.3,373.8c0.4,8.5-5.2,8.9-8.1,6.1c-2.7-4.7-2.2-12.2,3.5-12.8C937.2,366.9,939.2,369.8,939.3,373.8z"/>
	<path class="st5" d="M993.2,423.2c0.4,8.5-5.2,8.9-8.1,6.1c-2.7-4.7-2.2-12.2,3.5-12.8C991.1,416.3,993.1,419.2,993.2,423.2z"/>
	<path class="st5" d="M1029.7,398.8c-6.2,7.7-9.7,1.3-15.3-6c4.2-2.9-7.2-10.3,6-8.2C1025.5,388,1029.6,394.2,1029.7,398.8z"/>
	<path class="st5" d="M1027.5,369.1c-3.3,7.2-13.4,2.3-16.7-3.7c-4.1-10.5,0.1-10.8,8.1-8.4C1024.1,360,1028,365.4,1027.5,369.1z"/>
	<path class="st5" d="M952.1,342.2c-2.4,6.1-5.9,7.3-7.7,4.9c-0.7-2.1-2.4-8.6,5.4-10.6C952.1,336.4,953.1,339,952.1,342.2z"/>
	<path class="st5" d="M927.4,412.7c-2.4,6.1-5.9,7.3-7.7,4.9c-0.7-2.1-2.4-8.6,5.4-10.6C927.3,406.9,928.3,409.4,927.4,412.7z"/>
	<path class="st5" d="M978.8,321.6c-2.4,6.1-5.9,7.3-7.7,4.9c-0.7-2.1-2.4-8.6,5.4-10.6C978.7,315.8,979.7,318.4,978.8,321.6z"/>
	<path class="st5" d="M1001,337.8c-4.5,4-11.6,5.8-15-0.2c-1-3.5,3.7-6.1,10.1-7C1000.1,331.8,1002.4,335.1,1001,337.8z"/>
	<path class="st5" d="M971.4,349.2c-0.1,6.9-10.1,10.1-11.2,0.6c0.5-3.7,3.3-5.4,6.7-6.4C969.9,343.4,971.9,346,971.4,349.2z"/>
</g>
<g>
	<path class="st5" d="M287.5,767.5c-0.4,0.5-0.7,0.9-1.1,1.2h-6.8c-0.8-3.1,3.2-9.8,8.2-8C289.4,762,289.3,765,287.5,767.5z"/>
	<path class="st5" d="M343,752.5c-2,2.7-4.1,3-6.8,2.5c-3.4-1.4,1.1-11.4,7.1-9.4C345,747,344.9,750,343,752.5z"/>
	<path class="st5" d="M257.7,744.4c-2,2.7-4.1,3-6.8,2.5c-3.4-1.4,1.1-11.4,7.1-9.4C259.7,738.9,259.6,742,257.7,744.4z"/>
	<path class="st5" d="M318.4,727.3c-2,2.7-4.1,3-6.8,2.5c-3.4-1.4,1.1-11.4,7.1-9.4C320.4,721.8,320.2,724.8,318.4,727.3z"/>
	<path class="st5" d="M274.6,724.7c-2,2.7-4.1,3-6.8,2.5c-3.4-1.4,1.1-11.5,7.1-9.4C276.6,719.1,276.5,722.2,274.6,724.7z"/>
	<path class="st5" d="M310,768.7H303c0.1-0.3,0.2-0.5,0.4-0.8c2-2.2,4.9-1.2,6.6,0.6C310,768.6,310,768.6,310,768.7z"/>
	<path class="st5" d="M271.6,755.5c-4.4,4.9-7.7,2.1-7.8-1c1.1-4.1,5.5-8,9-5.2C274.2,750.5,273.7,753.2,271.6,755.5z"/>
	<path class="st5" d="M296,744.9c-4.7,2.1-7.3,0.8-7-1.5c0.8-1.6,3.4-6.1,8.8-2.9C299.1,741.7,298.3,743.6,296,744.9z"/>
	<path class="st5" d="M245.8,768.7H237c1-1.8,3.6-5.4,8.6-2.5C246.3,766.9,246.3,767.8,245.8,768.7z"/>
	<path class="st5" d="M322.1,748c-4.7,2.1-7.3,0.8-7-1.5c0.8-1.6,3.4-6.1,8.8-2.9C325.2,744.8,324.4,746.7,322.1,748z"/>
	<path class="st5" d="M322.8,768.7c-3.6-1-6.5-3.7-5.4-7.8c1.4-2.5,5.4-1.4,9.4,1.6c1.4,2.5,1.2,5.1-0.3,6.2H322.8z"/>
	<path class="st5" d="M302.9,759.3c-3.9,3.8-11.1,0.1-6.6-5.8c2.3-1.8,4.8-1.2,7.3,0.1C305.2,755.3,304.9,757.8,302.9,759.3z"/>
</g>
<g>
	<path class="st6" d="M1130.8,271v0.7c-27.5-39.6-59.8-65.9-96.7-78.7c-35.9-12.4-60.1-6.3-88.2,0.7c-26.3,6.6-56.2,14.1-102.8,8.6
		c-71.7-8.3-110.7-38.9-152.1-71.2c-42.4-33.1-86.2-67.4-169.4-82.6c-31.6-5.8-53.4-5.9-72.6-6.1c-26.4-0.2-47.3-0.4-81.2-14.9
		c-21-9-40.9-20.9-59.4-35.7h0.6c18.4,14.6,38.1,26.4,59,35.4C401.8,41.8,422.6,42,449,42.2c19.2,0.1,41,0.3,72.7,6.1
		c83.3,15.2,127.1,49.5,169.6,82.7c41.3,32.3,80.3,62.8,151.9,71.1c46.6,5.4,76.4-2.1,102.7-8.6c28.1-7,52.4-13.1,88.4-0.7
		C1071,205.4,1103.4,231.7,1130.8,271z"/>
</g>
<g>
	<path class="st6" d="M380.2,768.7h-0.5c-8-9.5-16.6-18.1-26-25.8c-39.9-33-84-42.9-122.8-51.7c-42.4-9.6-79.1-17.9-98.6-53.1
		c-12.2-22-10.2-41.3-8.3-60c1.9-18.8,3.7-36.5-8-56.5c-14.3-24.5-42.9-41.1-84.8-49.2c-18.9-3.7-40.9-5.7-65.6-6v-0.4
		c24.7,0.3,46.7,2.3,65.6,6c42,8.2,70.7,24.8,85.1,49.4c11.8,20.1,9.9,37.9,8,56.7c-1.9,18.6-3.8,37.8,8.3,59.8
		c19.4,35.1,56,43.3,98.3,53c38.9,8.8,83,18.8,123,51.8C363.4,750.4,372.2,759.1,380.2,768.7z"/>
</g>
<g>
	<path class="st5" d="M1130.8,541.7v1.5c-3.7,6.3-6.4,12.4-9.3,18.7c-6.1,13.6-13,29.1-31.2,50.3c-22.6,26.3-41.8,37.5-62.1,49.3
		c-15.6,9.1-31.8,18.5-50,35.4c-21.1,19.5-38.7,43.6-52.6,71.7h-0.9c14-28.4,31.7-52.6,53-72.3c18.3-17,34.5-26.4,50.1-35.5
		c20.3-11.8,39.4-22.9,61.9-49.1c18.1-21.1,25-36.5,31.1-50.1C1123.8,555,1126.7,548.5,1130.8,541.7z"/>
</g>
</svg>
