<?xml version="1.0" encoding="UTF-8"?><svg id="Layer_2" xmlns="http://www.w3.org/2000/svg" xmlns:xlink="http://www.w3.org/1999/xlink" viewBox="0 0 185.54 92.77"><defs><style>.cls-1{fill:none;}.cls-2{clip-path:url(#clippath);}.cls-3{fill:#03989e;}.cls-4{fill:#ffecec;}.cls-5{fill:#fe7c21;}</style><clipPath id="clippath"><rect class="cls-1" width="185.54" height="92.77"/></clipPath></defs><g id="Layer_1-2"><g class="cls-2"><g><path class="cls-5" d="m0,0h185.53v139.31H0V0Z"/><path class="cls-3" d="m46.39,23.24v23.19h-23.22c3.45,0,6.24-2.8,6.24-6.25,0-.73-.05-1.45-.13-2.16.45.56.93,1.1,1.44,1.62,2.44,2.44,6.39,2.44,8.83,0,2.44-2.44,2.44-6.4,0-8.84-.48-.49-.96-.95-1.45-1.37.66.04,1.35.07,2.05.06,3.45,0,6.24-2.8,6.24-6.25Zm-29.46,16.95c0-.69.01-1.36.06-2.01-.41.51-.85,1-1.32,1.47-2.44,2.44-6.39,2.44-8.83,0-2.44-2.44-2.44-6.4,0-8.84.48-.49.96-.95,1.45-1.37-.66.04-1.34.07-2.05.06C2.8,29.49,0,26.7,0,23.24v23.19h23.16c-3.45,0-6.24-2.8-6.24-6.25Zm14.84-16.32c0-4.75-3.85-8.61-8.6-8.61s-8.6,3.85-8.6,8.61,3.85,8.61,8.6,8.61,8.6-3.85,8.6-8.61Zm-25.52-6.87c.71,0,1.42.05,2.12.12-.51-.45-1.02-.92-1.52-1.43-2.44-2.44-2.44-6.4,0-8.84,2.44-2.44,6.39-2.44,8.83,0,.47.47.9.96,1.32,1.47-.05-.65-.07-1.32-.06-2.01C16.93,2.85,19.72.05,23.17.05s6.24,2.8,6.24,6.25c0,.73-.05,1.45-.13,2.16.45-.56.93-1.1,1.44-1.62,2.44-2.44,6.39-2.44,8.83,0,2.44,2.44,2.44,6.4,0,8.84-.5.51-1.01.99-1.52,1.43.7-.08,1.41-.12,2.12-.12,3.45,0,6.24,2.8,6.24,6.25V0H0v23.24c0-3.45,2.79-6.25,6.24-6.25Zm103.44,23.19c0-.69.01-1.36.06-2.01-.41.51-.85,1-1.32,1.47-2.44,2.44-6.39,2.44-8.83,0-2.44-2.44-2.44-6.4,0-8.84.48-.49.96-.95,1.45-1.37-.66.04-1.34.07-2.05.06-3.45,0-6.24-2.8-6.24-6.25v23.19h23.16c-3.45,0-6.24-2.8-6.24-6.25Zm23.22-10.7c-.7,0-1.39-.02-2.05-.06.49.43.97.88,1.45,1.37,2.44,2.44,2.44,6.4,0,8.84-2.44,2.44-6.39,2.44-8.83,0-.51-.52-.99-1.06-1.44-1.62.08.71.12,1.44.13,2.16,0,3.45-2.79,6.25-6.24,6.25h23.22v-23.19c0,3.45-2.79,6.25-6.24,6.25Zm-16.98,2.98c4.75,0,8.6-3.85,8.6-8.61s-3.85-8.61-8.6-8.61-8.6,3.85-8.6,8.61,3.85,8.61,8.6,8.61Zm-16.92-15.48c.72,0,1.42.05,2.12.12-.51-.45-1.02-.92-1.52-1.43-2.44-2.44-2.44-6.4,0-8.84,2.44-2.44,6.39-2.44,8.83,0,.47.47.9.96,1.32,1.47-.04-.65-.06-1.32-.06-2.01,0-3.45,2.79-6.25,6.24-6.25s6.24,2.8,6.24,6.25c0,.73-.05,1.45-.13,2.16.45-.56.93-1.1,1.44-1.62,2.44-2.44,6.39-2.44,8.83,0,2.44,2.44,2.44,6.4,0,8.84-.5.51-1.01.99-1.52,1.43.7-.08,1.41-.12,2.12-.12,3.45,0,6.24,2.8,6.24,6.25V0h-46.38v23.24c0-3.45,2.79-6.25,6.24-6.25Zm-12.03,58.91c-.7,0-1.39-.02-2.05-.06.48.43.97.88,1.45,1.37,2.44,2.44,2.44,6.4,0,8.84-2.44,2.44-6.39,2.44-8.83,0-.51-.52-.99-1.06-1.44-1.62.08.71.12,1.44.13,2.16,0,3.45-2.79,6.25-6.24,6.25s-6.24-2.8-6.24-6.25c0-.69.02-1.36.06-2.01-.41.51-.85,1-1.32,1.47-2.44,2.44-6.39,2.44-8.83,0-2.44-2.44-2.44-6.4,0-8.84.48-.49.96-.95,1.45-1.37-.66.04-1.35.07-2.05.06-3.45,0-6.24-2.8-6.24-6.25s2.79-6.25,6.24-6.25c.71,0,1.42.05,2.12.12-.51-.45-1.02-.92-1.52-1.44-2.44-2.44-2.44-6.4,0-8.84,2.44-2.44,6.39-2.44,8.83,0,.47.47.9.96,1.32,1.47-.04-.65-.06-1.32-.06-2.01,0-3.45,2.79-6.25,6.24-6.25s6.24,2.8,6.24,6.25c0,.73-.05,1.45-.13,2.16.45-.56.93-1.1,1.44-1.62,2.44-2.44,6.39-2.44,8.83,0,2.44,2.44,2.44,6.4,0,8.84-.5.51-1.01.99-1.52,1.44.7-.08,1.4-.12,2.12-.12,2.62,0,4.86,1.62,5.79,3.91v-20.88h-46.38v46.44h46.38v-20.88c-.93,2.29-3.17,3.91-5.79,3.91Zm-16.98-14.23c-4.75,0-8.6,3.85-8.6,8.61s3.85,8.61,8.6,8.61,8.6-3.85,8.6-8.61-3.85-8.61-8.6-8.61Zm69.15-15.23v23.22c0-3.45,2.79-6.25,6.24-6.25.71,0,1.42.05,2.12.12-.51-.45-1.02-.92-1.52-1.44-2.44-2.44-2.44-6.4,0-8.84,2.44-2.44,6.39-2.44,8.83,0,.47.47.9.96,1.32,1.47-.04-.65-.06-1.32-.06-2.01,0-3.45,2.79-6.25,6.24-6.25s6.24,2.8,6.24,6.25c0,.73-.05,1.45-.13,2.16.45-.56.93-1.1,1.44-1.62,2.44-2.44,6.39-2.44,8.83,0,2.44,2.44,2.44,6.4,0,8.84-.5.51-1.01.99-1.52,1.44.7-.08,1.4-.12,2.12-.12,3.45,0,6.24,2.8,6.24,6.25v-23.22h-46.39Zm23.16,15.23c-4.75,0-8.6,3.85-8.6,8.61s3.85,8.61,8.6,8.61,8.6-3.85,8.6-8.61-3.85-8.61-8.6-8.61Zm16.98,14.23c-.7,0-1.39-.02-2.05-.06.48.43.97.88,1.45,1.37,2.44,2.44,2.44,6.4,0,8.84-2.44,2.44-6.39,2.44-8.83,0-.51-.52-.99-1.06-1.44-1.62.08.71.12,1.44.13,2.16,0,3.45-2.79,6.25-6.24,6.25s-6.24-2.8-6.24-6.25c0-.69.01-1.36.06-2.01-.41.51-.85,1-1.32,1.47-2.44,2.44-6.39,2.44-8.83,0-2.44-2.44-2.44-6.4,0-8.84.48-.49.96-.95,1.45-1.37-.66.04-1.35.07-2.05.06-3.45,0-6.24-2.8-6.24-6.25v23.22h46.38v-23.22c0,3.45-2.79,6.25-6.24,6.25ZM6.25,109.82c.71,0,1.42.05,2.12.12-.51-.45-1.02-.92-1.52-1.44-2.44-2.44-2.44-6.4,0-8.84,2.44-2.44,6.39-2.44,8.83,0,.47.47.9.96,1.32,1.47-.04-.65-.06-1.32-.06-2.01,0-3.45,2.79-6.25,6.24-6.25H0v23.19c0-3.45,2.79-6.25,6.24-6.25Zm16.92-1.74c-4.75,0-8.6,3.85-8.6,8.61s3.85,8.61,8.6,8.61,8.6-3.85,8.6-8.61-3.85-8.61-8.6-8.61Zm16.98,14.24c-.7,0-1.39-.02-2.05-.06.49.43.97.88,1.45,1.37,2.44,2.44,2.44,6.4,0,8.84s-6.39,2.44-8.83,0c-.51-.52-.99-1.06-1.44-1.62.08.71.12,1.43.13,2.16,0,3.45-2.79,6.25-6.24,6.25s-6.24-2.8-6.24-6.25c0-.69.01-1.36.06-2.01-.41.51-.85.99-1.32,1.47-2.44,2.44-6.39,2.44-8.83,0-2.44-2.44-2.44-6.4,0-8.84.48-.49.96-.95,1.45-1.37-.66.04-1.34.07-2.05.06C2.8,122.32,0,119.52,0,116.07v23.25h46.38v-23.25c0,3.45-2.79,6.25-6.24,6.25Zm-10.73-23.19c0,.73-.05,1.45-.13,2.16.45-.56.93-1.1,1.44-1.62,2.44-2.44,6.39-2.44,8.83,0,2.44,2.44,2.44,6.4,0,8.84-.5.51-1.01.99-1.52,1.44.7-.08,1.41-.12,2.12-.12,3.45,0,6.24,2.8,6.24,6.25v-23.19h-23.22c3.45,0,6.24,2.8,6.24,6.25Zm92.76,0c0,.73-.05,1.45-.13,2.16.45-.56.93-1.1,1.44-1.62,2.44-2.44,6.39-2.44,8.83,0,2.44,2.44,2.44,6.4,0,8.84-.5.51-1.01.99-1.52,1.44.7-.08,1.41-.12,2.12-.12,3.45,0,6.24,2.8,6.24,6.25v-23.19h-23.22c3.45,0,6.24,2.8,6.24,6.25Zm10.73,23.19c-.7,0-1.39-.02-2.05-.06.49.43.97.88,1.45,1.37,2.44,2.44,2.44,6.4,0,8.84s-6.39,2.44-8.83,0c-.51-.52-.99-1.06-1.44-1.62.08.71.12,1.43.13,2.16,0,3.45-2.79,6.25-6.24,6.25s-6.24-2.8-6.24-6.25c0-.69.01-1.36.06-2.01-.41.51-.85.99-1.32,1.47-2.44,2.44-6.39,2.44-8.83,0-2.44-2.44-2.44-6.4,0-8.84.48-.49.96-.95,1.45-1.37-.66.04-1.34.07-2.05.06-3.45,0-6.24-2.8-6.24-6.25v23.25h46.38v-23.25c0,3.45-2.79,6.25-6.24,6.25Zm-33.9-12.5c.72,0,1.42.05,2.12.12-.51-.45-1.02-.92-1.52-1.44-2.44-2.44-2.44-6.4,0-8.84,2.44-2.44,6.39-2.44,8.83,0,.47.47.9.96,1.32,1.47-.04-.65-.06-1.32-.06-2.01,0-3.45,2.79-6.25,6.24-6.25h-23.17v23.19c0-3.45,2.79-6.25,6.24-6.25Zm16.92-1.74c-4.75,0-8.6,3.85-8.6,8.61s3.85,8.61,8.6,8.61,8.6-3.85,8.6-8.61-3.85-8.61-8.6-8.61Z"/><path class="cls-4" d="m93.22,23.24c0-3.45-2.79-6.25-6.24-6.25-.71,0-1.42.05-2.12.12.51-.45,1.02-.92,1.52-1.43,2.44-2.44,2.44-6.4,0-8.84-2.44-2.44-6.39-2.44-8.83,0-.51.52-.99,1.06-1.44,1.62.08-.71.12-1.43.13-2.16,0-3.45-2.79-6.25-6.24-6.25s-6.24,2.8-6.24,6.25c0,.69.01,1.36.06,2.01-.41-.51-.85-.99-1.32-1.47-2.44-2.44-6.39-2.44-8.83,0-2.44,2.44-2.44,6.4,0,8.84.5.51,1.01.99,1.52,1.43-.7-.08-1.4-.12-2.12-.12-3.45,0-6.24,2.8-6.24,6.25s2.79,6.25,6.24,6.25c.7,0,1.39-.02,2.05-.06-.49.43-.97.88-1.45,1.37-2.44,2.44-2.44,6.4,0,8.84,2.44,2.44,6.39,2.44,8.83,0,.47-.47.9-.96,1.32-1.47-.04.65-.06,1.32-.06,2.01,0,3.45,2.79,6.25,6.24,6.25s6.24-2.8,6.24-6.25c0-.73-.05-1.45-.13-2.16.45.56.93,1.1,1.44,1.62,2.44,2.44,6.39,2.44,8.83,0,2.44-2.44,2.44-6.4,0-8.84-.48-.49-.96-.95-1.45-1.37.66.04,1.34.07,2.05.06,3.45,0,6.25-2.8,6.25-6.25Zm-23.22,9.23c-4.75,0-8.6-3.85-8.6-8.61s3.85-8.61,8.6-8.61,8.6,3.85,8.6,8.61c0,4.75-3.85,8.61-8.6,8.61Zm115.53-9.23c0-3.45-2.79-6.25-6.24-6.25-.71,0-1.42.05-2.12.12.51-.45,1.02-.92,1.52-1.43,2.44-2.44,2.44-6.4,0-8.84-2.44-2.44-6.39-2.44-8.83,0-.51.52-.99,1.06-1.44,1.62.08-.71.12-1.43.13-2.16,0-3.45-2.79-6.25-6.24-6.25s-6.24,2.8-6.24,6.25c0,.69.01,1.36.06,2.01-.41-.51-.85-.99-1.32-1.47-2.44-2.44-6.39-2.44-8.83,0-2.44,2.44-2.44,6.4,0,8.84.5.51,1.01.99,1.52,1.43-.7-.08-1.4-.12-2.12-.12-3.45,0-6.24,2.8-6.24,6.25s2.79,6.25,6.24,6.25c.7,0,1.39-.02,2.05-.06-.49.43-.97.88-1.45,1.37-2.44,2.44-2.44,6.4,0,8.84,2.44,2.44,6.39,2.44,8.83,0,.47-.47.9-.96,1.32-1.47-.04.65-.06,1.32-.06,2.01,0,3.45,2.79,6.25,6.24,6.25s6.24-2.8,6.24-6.25c0-.73-.05-1.45-.13-2.16.45.56.93,1.1,1.44,1.62,2.44,2.44,6.39,2.44,8.83,0,2.44-2.44,2.44-6.4,0-8.84-.48-.49-.96-.95-1.45-1.37.66.04,1.34.07,2.05.06,3.45,0,6.25-2.8,6.25-6.25Zm-23.22,9.23c-4.75,0-8.6-3.85-8.6-8.61s3.85-8.61,8.6-8.61,8.6,3.85,8.6,8.61-3.85,8.61-8.6,8.61Zm-115.93,37.18c0-3.45-2.79-6.25-6.24-6.25-.71,0-1.42.05-2.12.12.51-.45,1.02-.92,1.52-1.44,2.44-2.44,2.44-6.4,0-8.84-2.44-2.44-6.39-2.44-8.83,0-.51.52-.99,1.06-1.44,1.62.08-.71.12-1.43.13-2.16,0-3.45-2.79-6.25-6.24-6.25s-6.24,2.8-6.24,6.25c0,.69.01,1.36.06,2.01-.41-.51-.85-.99-1.32-1.47-2.44-2.44-6.39-2.44-8.83,0-2.44,2.44-2.44,6.4,0,8.84.5.51,1.01.99,1.52,1.44-.7-.08-1.4-.12-2.12-.12-3.45,0-6.24,2.8-6.24,6.25s2.79,6.25,6.24,6.25c.7,0,1.39-.02,2.05-.06-.48.43-.97.88-1.45,1.37-2.44,2.44-2.44,6.4,0,8.84,2.44,2.44,6.39,2.44,8.83,0,.47-.47.9-.96,1.32-1.47-.04.65-.06,1.32-.06,2.01,0,3.45,2.79,6.25,6.24,6.25s6.24-2.8,6.24-6.25c0-.73-.05-1.45-.13-2.16.45.56.93,1.1,1.44,1.62,2.44,2.44,6.39,2.44,8.83,0,2.44-2.44,2.44-6.4,0-8.84-.48-.49-.96-.95-1.45-1.37.66.04,1.35.07,2.05.06,3.45,0,6.25-2.8,6.25-6.25Zm-23.22,9.23c-4.75,0-8.6-3.85-8.6-8.61s3.85-8.61,8.6-8.61,8.6,3.85,8.6,8.61-3.85,8.61-8.6,8.61Zm115.98-9.23c0-3.45-2.79-6.25-6.24-6.25-.71,0-1.42.05-2.12.12.51-.45,1.02-.92,1.52-1.44,2.44-2.44,2.44-6.4,0-8.84-2.44-2.44-6.39-2.44-8.83,0-.51.52-.99,1.06-1.44,1.62.08-.71.12-1.43.13-2.16,0-3.45-2.79-6.25-6.24-6.25s-6.24,2.8-6.24,6.25c0,.69.01,1.36.06,2.01-.41-.51-.85-.99-1.32-1.47-2.44-2.44-6.39-2.44-8.83,0-2.44,2.44-2.44,6.4,0,8.84.5.51,1.01.99,1.52,1.44-.7-.08-1.4-.12-2.12-.12-3.45,0-6.24,2.8-6.24,6.25s2.79,6.25,6.24,6.25c.7,0,1.39-.02,2.05-.06-.48.43-.97.88-1.45,1.37-2.44,2.44-2.44,6.4,0,8.84,2.44,2.44,6.39,2.44,8.83,0,.47-.47.9-.96,1.32-1.47-.04.65-.06,1.32-.06,2.01,0,3.45,2.79,6.25,6.24,6.25s6.24-2.8,6.24-6.25c0-.73-.05-1.45-.13-2.16.45.56.93,1.1,1.44,1.62,2.44,2.44,6.39,2.44,8.83,0,2.44-2.44,2.44-6.4,0-8.84-.48-.49-.96-.95-1.45-1.37.66.04,1.35.07,2.05.06,3.45,0,6.24-2.8,6.24-6.25Zm-23.22,9.23c-4.75,0-8.6-3.85-8.6-8.61s3.85-8.61,8.6-8.61,8.6,3.85,8.6,8.61-3.85,8.61-8.6,8.61Zm-22.71,37.18c0-3.45-2.79-6.25-6.24-6.25-.71,0-1.42.05-2.12.12.51-.45,1.02-.92,1.52-1.44,2.44-2.44,2.44-6.4,0-8.84-2.44-2.44-6.39-2.44-8.83,0-.51.52-.99,1.06-1.44,1.62.08-.71.12-1.44.13-2.16,0-3.45-2.79-6.25-6.24-6.25s-6.24,2.8-6.24,6.25c0,.69.01,1.36.06,2.01-.41-.51-.85-1-1.32-1.47-2.44-2.44-6.39-2.44-8.83,0-2.44,2.44-2.44,6.4,0,8.84.5.51,1.01.99,1.52,1.44-.7-.08-1.4-.12-2.12-.12-3.45,0-6.24,2.8-6.24,6.25s2.79,6.25,6.24,6.25c.7,0,1.39-.02,2.05-.06-.49.43-.97.88-1.45,1.37-2.44,2.44-2.44,6.4,0,8.84,2.44,2.44,6.39,2.44,8.83,0,.47-.47.9-.96,1.32-1.47-.04.65-.06,1.32-.06,2.01,0,3.45,2.79,6.25,6.24,6.25s6.24-2.8,6.24-6.25c0-.73-.05-1.45-.13-2.16.45.56.93,1.1,1.44,1.62,2.44,2.44,6.39,2.44,8.83,0,2.44-2.44,2.44-6.4,0-8.84-.48-.49-.96-.95-1.45-1.37.66.04,1.34.07,2.05.06,3.45,0,6.25-2.8,6.25-6.25Zm-23.22,9.23c-4.75,0-8.6-3.85-8.6-8.61s3.85-8.61,8.6-8.61,8.6,3.85,8.6,8.61c0,4.76-3.85,8.61-8.6,8.61Zm115.53-9.23c0-3.45-2.79-6.25-6.24-6.25-.71,0-1.42.05-2.12.12.51-.45,1.02-.92,1.52-1.44,2.44-2.44,2.44-6.4,0-8.84-2.44-2.44-6.39-2.44-8.83,0-.51.52-.99,1.06-1.44,1.62.08-.71.12-1.44.13-2.16,0-3.45-2.79-6.25-6.24-6.25s-6.24,2.8-6.24,6.25c0,.69.01,1.36.06,2.01-.41-.51-.85-1-1.32-1.47-2.44-2.44-6.39-2.44-8.83,0-2.44,2.44-2.44,6.4,0,8.84.5.51,1.01.99,1.52,1.44-.7-.08-1.4-.12-2.12-.12-3.45,0-6.24,2.8-6.24,6.25s2.79,6.25,6.24,6.25c.7,0,1.39-.02,2.05-.06-.49.43-.97.88-1.45,1.37-2.44,2.44-2.44,6.4,0,8.84,2.44,2.44,6.39,2.44,8.83,0,.47-.47.9-.96,1.32-1.47-.04.65-.06,1.32-.06,2.01,0,3.45,2.79,6.25,6.24,6.25s6.24-2.8,6.24-6.25c0-.73-.05-1.45-.13-2.16.45.56.93,1.1,1.44,1.62,2.44,2.44,6.39,2.44,8.83,0,2.44-2.44,2.44-6.4,0-8.84-.48-.49-.96-.95-1.45-1.37.66.04,1.34.07,2.05.06,3.45,0,6.25-2.8,6.25-6.25Zm-23.22,9.23c-4.75,0-8.6-3.85-8.6-8.61s3.85-8.61,8.6-8.61,8.6,3.85,8.6,8.61-3.85,8.61-8.6,8.61Z"/></g></g></g></svg>